<?xml version="1.0" encoding="utf-8"?>
<!-- Generator: Adobe Illustrator 21.1.0, SVG Export Plug-In . SVG Version: 6.00 Build 0)  -->
<svg version="1.1" xmlns="http://www.w3.org/2000/svg" xmlns:xlink="http://www.w3.org/1999/xlink" x="0px" y="0px"
	 viewBox="0 0 179.1 93.5" style="enable-background:new 0 0 179.1 93.5;" xml:space="preserve">
<style type="text/css">
	.st0{fill:#FFFFFF;}
	.st1{fill:#D41B23;}
	.st2{fill:#013D6F;}
	.st3{fill:none;}
</style>
<g id="Layer_2_1_">
	<rect x="20.5" y="-0.6" class="st0" width="143.2" height="93.9"/>
</g>
<g id="Layer_1">
	<g id="Layer_2">
		<g id="Layer_4">
		</g>
		<g id="XMLID_1_">
			<g>
				<path class="st1" d="M73.8,93.3c-0.5-2.1-2.7-12.4-3.6-17.1c-0.1-0.3,0.1-0.9,0.3-1.1c5.3-4,10.9-7.6,17.3-9.9
					c2.5-0.9,5-1.5,7.7-1.1c2.5,0.3,4.4,1.6,5.3,4c0.4,1,0.1,2.3,0.1,3.4c0,0.8-0.1,1.5-0.1,2.3c0.2,4.4,2.5,5.4,6,6.3
					c3.4,0.8,6.8,0.5,10.2-0.1c9.2-1.4,18.2-0.3,26.4,4.1c4.4,2.3,8.5,5.2,12.7,7.9c0.3,0.2,0.6,0.4,0.9,0.7
					c0.2,0.2,0.3,0.2,0.4,0.2v0.8c-30.5,0-81,0-81.7,0s-1.6,0.2-1.7,0C73.9,93.7,73.9,93.5,73.8,93.3z"/>
				<path class="st0" d="M70.5,75.1c-0.3,0.2-0.4,0.7-0.3,1.1c1,4.7,3.2,15,3.6,17.1H70C63.2,62,56.4,30.5,49.7-0.6H54v2.4
					c5.2,24.3,10.4,48.3,15.6,72.3c0,0.1,0.1,0.2,0.2,0.2L70.5,75.1z"/>
				<path class="st1" d="M180.1-0.6v94.3c0,0-9.5,0-22.7,0v-0.8c0.1,0,0-0.3,0-0.4c-0.3-2-0.6-3.9-1-5.9c-1.7-8.2-3.6-16.3-5.2-24.5
					c-0.7-3.6-1.3-7.3-1.2-11c0.1-5.1,0.6-10.2,1.4-15.2c0.8-5.3,2.1-10.5,3.3-15.8c0.3-1.2,0.9-2.3,1.5-3.5c-0.9-0.8-2-0.5-2.9-0.4
					c-3.7,0.6-7.4,1.1-11,1.9c-4.4,1-8.8,0.8-13.2,0.3c-4.3-0.5-8.6-1-12.9-1.9c-4.6-1-9-2.6-13.5-3.9c-0.9-0.3-1-0.8-1-1.6
					c0-2.4,0.1-4.8-0.1-7.2c-0.1-1.5-0.8-2.9-1.2-4.4C100.4-0.6,180.1-0.6,180.1-0.6z"/>
				<path class="st0" d="M157.4,92.4c0,0.1,0.1,0.4,0,0.4s-0.2-0.1-0.4-0.2c-0.3-0.2-0.6-0.5-0.9-0.7c-4.2-2.6-8.3-5.6-12.7-7.9
					c-8.3-4.4-17.2-5.5-26.4-4.1c-3.4,0.5-6.8,0.9-10.2,0.1c-3.5-0.9-5.8-1.9-6-6.3c0-0.8,0.1-1.5,0.1-2.3c0-1.1,0.3-2.4-0.1-3.4
					c-0.9-2.4-2.7-3.7-5.3-4c-2.7-0.3-5.2,0.2-7.7,1.1C81.5,67.4,75.9,71,70.5,75l-0.6-0.8c0.1,0,0.3-0.1,0.3-0.2
					c0.3-5.4,0.8-10.8,1-16.2c0.2-4.9-0.1-9.8-1.2-14.6c-0.6-2.8-1.6-5.4-2.4-8.2c-1.5-4.8-3.3-9.5-4.4-14.4
					c-1.6-6.9-5.1-12.8-9-18.9v-2.4h2.7c0.1,0,0.3,0.1,0.3,0.1C57.8-0.3,58.4-0.1,59,0c3.5,0.7,6.9,1.6,10.4,2.2
					c2.9,0.5,6,1.2,8.8,0.7c3.9-0.6,7.7-2.1,11.6-3.2c0,0,0.7-0.3,0.8-0.3l9.8,0.1c0.4,1.5,1.1,2.9,1.2,4.4c0.2,2.4,0.1,4.8,0.1,7.2
					c0,0.8,0.1,1.4,1,1.6c4.5,1.3,8.9,2.9,13.5,3.9c4.2,0.9,8.6,1.4,12.9,1.9c4.4,0.5,8.8,0.8,13.2-0.3c3.6-0.8,7.3-1.3,11-1.9
					c0.9-0.1,2-0.5,2.9,0.4c-0.5,1.2-1.2,2.3-1.5,3.5c-1.2,5.2-2.5,10.5-3.3,15.8c-0.8,5-1.3,10.1-1.4,15.2c-0.1,3.7,0.5,7.4,1.2,11
					c1.6,8.2,3.5,16.3,5.2,24.5C156.8,88.5,157.1,90.5,157.4,92.4z"/>
				<path class="st1" d="M89.7-0.6h0.9c-0.1,0.1-0.8,0.3-0.8,0.3C86,0.8,82.2,2.4,78.2,2.9c-2.8,0.4-5.9-0.3-8.8-0.7
					C65.9,1.6,62.5,0.8,59,0c-0.6-0.1-1.3-0.4-1.9-0.6c0,0-0.2-0.1-0.3-0.1h1h31.9V-0.6z"/>
				<path class="st1" d="M70,43.3c1.1,4.8,1.4,9.7,1.2,14.6c-0.3,5.4-0.7,10.8-1,16.2c0,0.1-0.1,0.2-0.3,0.2c-0.1,0-0.2-0.1-0.2-0.2
					c-5.2-24-10.3-48-15.6-72.3c3.9,6.1,7.4,12,9,18.9c1.1,4.9,3,9.6,4.4,14.4C68.4,37.8,69.4,40.5,70,43.3z"/>
				<path class="st2" d="M49.7-0.6C56.4,30.5,63.2,62,70,93.3c0,0.1,0,0.2,0.1,0.2c-23.5,0-46.9,0-70.2,0c0-31.3,0-62.9,0-94.1
					C16.4-0.6,33-0.6,49.7-0.6L49.7-0.6z"/>
				<path class="st1" d="M57.8-0.6h-1l0,0H57.8z"/>
			</g>
		</g>
	</g>
	<g id="Layer_5">
		<rect class="st3" width="179.1" height="93.5"/>
	</g>
</g>
</svg>
